<svg width="2048" height="2048" viewBox="0 0 2048 2048" fill="none" xmlns="http://www.w3.org/2000/svg">
<rect width="2048" height="2048" fill="#1E1E1E"/>
<path d="M-120 -120H10500V2148H-120V-120Z" fill="#404040"/>
<path d="M-120 -120V-121H-121V-120H-120ZM10500 -120H10501V-121H10500V-120ZM10500 2148V2149H10501V2148H10500ZM-120 2148H-121V2149H-120V2148ZM-120 -119H10500V-121H-120V-119ZM10499 -120V2148H10501V-120H10499ZM10500 2147H-120V2149H10500V2147ZM-119 2148V-120H-121V2148H-119Z" fill="white" fill-opacity="0.1"/>
<rect x="-19.5" y="-19.5" width="2087" height="2067" rx="4.5" stroke="#9747FF" stroke-dasharray="10 5"/>
<path d="M657.859 1400.5C612.631 1399.4 539.586 1471.07 545.341 1543.84C546.076 1585.56 571.705 1669.76 668.338 1672.85C741.143 1672.85 732.87 1689.94 754.932 1751.14C776.995 1812.33 715.772 1879.6 606.564 1882.9C497.356 1886.21 503.974 1804.06 495.149 1761.06C488.089 1726.66 445.509 1692.7 425.102 1680.02C366.637 1627.64 385.39 1499.74 387.596 1457.84C389.802 1415.94 447.164 1321.11 606.564 1302.37C708.602 1290.24 699.225 1281.42 688.745 1274.25C678.45 1272.96 638.444 1274.36 560.784 1290.24C483.125 1184.38 427.308 1143.22 409.106 1135.87C416.461 1117.86 474.742 1100.89 554.717 1135.87C653.556 1179.09 642.599 1161.23 624.765 1146.9C598.842 1139.73 535.413 1038.84 546.444 915.342C619.801 805.079 619.066 750.315 613.183 722.933C765.964 774.756 678.818 980.398 725.148 980.398C762.213 931.441 784.349 857.638 788.026 827.683C836.011 630.863 764.309 575.18 710.808 398.207C706.837 228.842 802.55 172.167 850.903 165C846.858 188.523 843.843 247.918 864.141 297.316C884.438 346.714 951.654 398.758 982.725 418.606C1115.65 474.289 1136.78 527.766 1163.08 556.435C1254.64 656.223 1255.75 682.87 1276.7 731.202C1331.31 880.058 1298.77 869.032 1298.77 883.917C1259.05 917.437 1289.94 918.098 1310.35 914.239C1414.59 866.275 1451.55 861.864 1484.64 883.917C1437.76 930.227 1408.71 985.91 1405.77 1009.62C1401.91 1028.73 1400.91 1079.63 1427.83 1130.36C1354.58 1132.56 1359.07 1151.12 1370.47 1160.13C1406.87 1171.7 1490.71 1094.52 1589.44 1267.08C1658.38 1414.28 1631.35 1499.55 1608.19 1517.93C1608.19 1539.43 1665 1531.71 1665 1586.85C1665 1653.44 1567.37 1660.17 1513.87 1660.17C1468.09 1660.17 1384.81 1647.38 1384.81 1591.81C1384.81 1522.34 1441.62 1531.71 1494.02 1531.71C1535.94 1519.59 1525.46 1451.22 1513.87 1389.47C1504.61 1340.08 1423.97 1287.3 1384.81 1267.08C1343.77 1245.91 1346.02 1265.61 1352.27 1279.21L1394.19 1305.67L1384.81 1389.47C1384.81 1434.13 1292.7 1520.69 979.967 1564.24C733.311 1580.56 628.258 1490.55 606.564 1443.5C630.281 1420.9 679.921 1415.94 657.859 1400.5Z" stroke="#89D5FF" stroke-width="165"/>
<path d="M657.859 1400.5C612.631 1399.4 539.586 1471.07 545.341 1543.84C546.076 1585.56 571.705 1669.76 668.338 1672.85C741.143 1672.85 732.87 1689.94 754.932 1751.14C776.995 1812.33 715.772 1879.6 606.564 1882.9C497.356 1886.21 503.974 1804.06 495.149 1761.06C488.089 1726.66 445.509 1692.7 425.102 1680.02C366.637 1627.64 385.39 1499.74 387.596 1457.84C389.802 1415.94 447.164 1321.11 606.564 1302.37C708.602 1290.24 699.225 1281.42 688.745 1274.25C678.45 1272.96 638.444 1274.36 560.784 1290.24C483.125 1184.38 427.308 1143.22 409.106 1135.87C416.461 1117.86 474.742 1100.89 554.717 1135.87C653.556 1179.09 642.599 1161.23 624.765 1146.9C598.842 1139.73 535.413 1038.84 546.444 915.342C619.801 805.079 619.066 750.315 613.183 722.933C765.964 774.756 678.818 980.398 725.148 980.398C762.213 931.441 784.349 857.638 788.026 827.683C836.011 630.863 764.309 575.18 710.808 398.207C706.837 228.842 802.55 172.167 850.903 165C846.858 188.523 843.843 247.918 864.141 297.316C884.438 346.714 951.654 398.758 982.725 418.606C1115.65 474.289 1136.78 527.766 1163.08 556.435C1254.64 656.223 1255.75 682.87 1276.7 731.202C1331.31 880.058 1298.77 869.032 1298.77 883.917C1259.05 917.437 1289.94 918.098 1310.35 914.239C1414.59 866.275 1451.55 861.864 1484.64 883.917C1437.76 930.227 1408.71 985.91 1405.77 1009.62C1401.91 1028.73 1400.91 1079.63 1427.83 1130.36C1354.58 1132.56 1359.07 1151.12 1370.47 1160.13C1406.87 1171.7 1490.71 1094.52 1589.44 1267.08C1658.38 1414.28 1631.35 1499.55 1608.19 1517.93C1608.19 1539.43 1665 1531.71 1665 1586.85C1665 1653.44 1567.37 1660.17 1513.87 1660.17C1468.09 1660.17 1384.81 1647.38 1384.81 1591.81C1384.81 1522.34 1441.62 1531.71 1494.02 1531.71C1535.94 1519.59 1525.46 1451.22 1513.87 1389.47C1504.61 1340.08 1423.97 1287.3 1384.81 1267.08C1343.77 1245.91 1346.02 1265.61 1352.27 1279.21L1394.19 1305.67L1384.81 1389.47C1384.81 1434.13 1292.7 1520.69 979.967 1564.24C733.311 1580.56 628.258 1490.55 606.564 1443.5C630.281 1420.9 679.921 1415.94 657.859 1400.5Z" stroke="#39A9E8" stroke-width="108"/>
<path d="M657.859 1400.5C612.631 1399.4 539.586 1471.07 545.341 1543.84C546.076 1585.56 571.705 1669.76 668.338 1672.85C741.143 1672.85 732.87 1689.94 754.932 1751.14C776.995 1812.33 715.772 1879.6 606.564 1882.9C497.356 1886.21 503.974 1804.06 495.149 1761.06C488.089 1726.66 445.509 1692.7 425.102 1680.02C366.637 1627.64 385.39 1499.74 387.596 1457.84C389.802 1415.94 447.164 1321.11 606.564 1302.37C708.602 1290.24 699.225 1281.42 688.745 1274.25C678.45 1272.96 638.444 1274.36 560.784 1290.24C483.125 1184.38 427.308 1143.22 409.106 1135.87C416.461 1117.86 474.742 1100.89 554.717 1135.87C653.556 1179.09 642.599 1161.23 624.765 1146.9C598.842 1139.73 535.413 1038.84 546.444 915.342C619.801 805.079 619.066 750.315 613.183 722.933C765.964 774.756 678.818 980.398 725.148 980.398C762.213 931.441 784.349 857.638 788.026 827.683C836.011 630.863 764.309 575.18 710.808 398.207C706.837 228.842 802.55 172.167 850.903 165C846.858 188.523 843.843 247.918 864.141 297.316C884.438 346.714 951.654 398.758 982.725 418.606C1115.65 474.289 1136.78 527.766 1163.08 556.435C1254.64 656.223 1255.75 682.87 1276.7 731.202C1331.31 880.058 1298.77 869.032 1298.77 883.917C1259.05 917.437 1289.94 918.098 1310.35 914.239C1414.59 866.275 1451.55 861.864 1484.64 883.917C1437.76 930.227 1408.71 985.91 1405.77 1009.62C1401.91 1028.73 1400.91 1079.63 1427.83 1130.36C1354.58 1132.56 1359.07 1151.12 1370.47 1160.13C1406.87 1171.7 1490.71 1094.52 1589.44 1267.08C1658.38 1414.28 1631.35 1499.55 1608.19 1517.93C1608.19 1539.43 1665 1531.71 1665 1586.85C1665 1653.44 1567.37 1660.17 1513.87 1660.17C1468.09 1660.17 1384.81 1647.38 1384.81 1591.81C1384.81 1522.34 1441.62 1531.71 1494.02 1531.71C1535.94 1519.59 1525.46 1451.22 1513.87 1389.47C1504.61 1340.08 1423.97 1287.3 1384.81 1267.08C1343.77 1245.91 1346.02 1265.61 1352.27 1279.21L1394.19 1305.67L1384.81 1389.47C1384.81 1434.13 1292.7 1520.69 979.967 1564.24C733.311 1580.56 628.258 1490.55 606.564 1443.5C630.281 1420.9 679.921 1415.94 657.859 1400.5Z" stroke="#063299" stroke-width="56"/>
<path d="M657.859 1400.5C612.631 1399.4 539.586 1471.07 545.341 1543.84C546.076 1585.56 571.705 1669.76 668.338 1672.85C741.143 1672.85 732.87 1689.94 754.932 1751.14C776.995 1812.33 715.772 1879.6 606.564 1882.9C497.356 1886.21 503.974 1804.06 495.149 1761.06C488.089 1726.66 445.509 1692.7 425.102 1680.02C366.637 1627.64 385.39 1499.74 387.596 1457.84C389.802 1415.94 447.164 1321.11 606.564 1302.37C708.602 1290.24 699.225 1281.42 688.745 1274.25C678.45 1272.96 638.444 1274.36 560.784 1290.24C483.125 1184.38 427.308 1143.22 409.106 1135.87C416.461 1117.86 474.742 1100.89 554.717 1135.87C653.556 1179.09 642.599 1161.23 624.765 1146.9C598.842 1139.73 535.413 1038.84 546.444 915.342C619.801 805.079 619.066 750.315 613.183 722.933C765.964 774.756 678.818 980.398 725.148 980.398C762.213 931.441 784.349 857.638 788.026 827.683C836.011 630.863 764.309 575.18 710.808 398.207C706.837 228.842 802.55 172.167 850.903 165C846.858 188.523 843.843 247.918 864.141 297.316C884.438 346.714 951.654 398.758 982.725 418.606C1115.65 474.289 1136.78 527.766 1163.08 556.435C1254.64 656.223 1255.75 682.87 1276.7 731.202C1331.31 880.058 1298.77 869.032 1298.77 883.917C1259.05 917.437 1289.94 918.098 1310.35 914.239C1414.59 866.275 1451.55 861.864 1484.64 883.917C1437.76 930.227 1408.71 985.91 1405.77 1009.62C1401.91 1028.73 1400.91 1079.63 1427.83 1130.36C1354.58 1132.56 1359.07 1151.12 1370.47 1160.13C1406.87 1171.7 1490.71 1094.52 1589.44 1267.08C1658.38 1414.28 1631.35 1499.55 1608.19 1517.93C1608.19 1539.43 1665 1531.71 1665 1586.85C1665 1653.44 1567.37 1660.17 1513.87 1660.17C1468.09 1660.17 1384.81 1647.38 1384.81 1591.81C1384.81 1522.34 1441.62 1531.71 1494.02 1531.71C1535.94 1519.59 1525.46 1451.22 1513.87 1389.47C1504.61 1340.08 1423.97 1287.3 1384.81 1267.08C1343.77 1245.91 1346.02 1265.61 1352.27 1279.21L1394.19 1305.67L1384.81 1389.47C1384.81 1434.13 1292.7 1520.69 979.967 1564.24C733.311 1580.56 628.258 1490.55 606.564 1443.5C630.281 1420.9 679.921 1415.94 657.859 1400.5Z" fill="black"/>
<path d="M848.07 864.876C846.783 883.431 862.849 922.083 937.405 928.256C1009.74 934.244 1028.4 923.426 1028.95 916.736C1030.27 909.725 1006.7 903.491 994.756 901.251C984.279 899.597 952.515 890.008 909.281 864.876C866.047 839.745 850.459 854.405 848.07 864.876Z" fill="white"/>
<path d="M1159.16 791C1110.01 837.375 1110.63 863.691 1117.09 871.052C1131.7 878.118 1147.54 843.448 1170.23 841.239C1180.93 846.576 1203.33 850.735 1207.32 824.677C1211.31 798.619 1196.8 791.368 1189.05 791H1159.16Z" fill="white"/>
<path d="M934.845 1054.78C917.041 1054.78 919.637 1004.07 920.935 977.606C923.717 958.863 934.845 956.107 952.649 957.209C970.453 958.312 972.678 997.451 967.671 1028.32C962.664 1059.19 957.656 1054.78 934.845 1054.78Z" fill="white"/>
<path d="M1181.79 1024.86C1157.43 1021.75 1154.66 963.227 1160.75 938.797C1183.45 914.921 1199.5 932.689 1203.93 944.904C1208.91 978.774 1206.14 1027.97 1181.79 1024.86Z" fill="white"/>
<path d="M906.608 1427C827.753 1420.94 796.872 1297.04 806.798 1139C828.856 1165.98 880.139 1203.43 902.748 1210.04C1040.06 1273.91 1166.33 1224.9 1211 1210.04C1210.56 1270.83 1181.04 1304.02 1166.33 1313.01C1032.89 1392.31 962.303 1427 906.608 1427Z" fill="white"/>
</svg>
