<svg width="2693" height="4389" viewBox="0 0 2693 4389" fill="none" xmlns="http://www.w3.org/2000/svg">
<g clip-path="url(#clip0_864_104)">
<path d="M719.673 687.042C719.673 687.042 527.338 926.213 568.69 1321.71C568.69 1321.71 563.149 1469.95 804.197 1927.79C804.197 1927.79 1041.99 2364.8 1036.38 2418.99C1036.38 2418.99 1125.24 2657.7 1039.28 2967.91C1039.28 2967.91 1304.28 2877.87 1294.93 2457.41C1294.93 2457.41 1279.92 2225.11 1037 1868.18C1037 1868.18 800.758 1526.69 751.24 1341.69C751.24 1341.69 628.112 961.279 719.673 687.042Z" fill="black"/>
<path d="M617.496 2139.34C183.733 2347.55 -58.3868 2848.67 12.099 3332.46C71.4773 3740.02 333.417 4122.58 724.442 4274.67C1160.75 4444.37 1683.9 4433.24 2085.43 4186.76C2421.65 3980.36 2668.32 3602.01 2666.86 3209.79C2666.02 2986.3 2554.18 2710.07 2320.69 2423.06C2032.33 2068.6 1885.26 1961.09 1669.99 1701.19C1423.85 1404.03 1335.44 1006.1 1335.7 627.781C1335.77 524.847 1387.6 288.6 1384.68 279.593C1153.41 612.719 1057.24 1034.25 1138.12 1441.29C1181.62 1660.23 1269.26 1874.98 1442.41 2025.64C1608.08 2169.78 1751.17 2269.73 1903.89 2430.42C1984.07 2514.78 2140.58 2681.27 2185.48 2797.87C2259.35 2989.71 2287.78 3156.08 2237.94 3359.66C2189.68 3556.83 2029.86 3700.58 1867.16 3816.6C1676.63 3952.48 1418.5 3974.56 1186.02 3955.57C833.711 3926.79 499.405 3683.81 385.623 3355.73C280.51 3052.65 325.715 2704.52 497.111 2434.07C553.945 2344.39 597.332 2244.57 617.496 2139.34Z" fill="black"/>
<path d="M1644.51 0C1513.92 86.3565 1446.06 242.892 1415.76 391.369C1376.38 683.317 1393.9 985.789 1484.05 1267.05C1603.17 1541.93 1793.72 1779.91 2009.99 1984.85C2161.56 2151.14 2331.57 2302.83 2450.18 2496.3C2553.01 2636 2649.34 2788.47 2683.18 2961.06C2721.06 2768.16 2664.5 2570 2596.31 2395.89C2540.24 2215.93 2423.66 2065.7 2333.36 1903.36C2244.13 1721.59 2231.13 1514.62 2256.74 1316.6C2263.07 1156.46 2319.22 988.347 2257.73 833.465C2202.72 738.737 2101.39 676.285 1992.96 664.853C2142.85 718.913 2183.54 934.165 2067.61 1042.22C1966.31 1159.97 1764.37 1114.42 1691.71 986.897C1610.06 869.726 1575.87 713 1561.5 573C1541.03 373.51 1574.4 187.925 1644.51 0Z" fill="black"/>
</g>
<defs>
<clipPath id="clip0_864_104">
<rect width="2693" height="4389" fill="white"/>
</clipPath>
</defs>
</svg>
