<?xml version="1.0" encoding="utf-8"?>
<!-- Generator: Adobe Illustrator 25.0.1, SVG Export Plug-In . SVG Version: 6.00 Build 0)  -->
<svg fill="white" version="1.0" id="Capa_1" xmlns="http://www.w3.org/2000/svg" xmlns:xlink="http://www.w3.org/1999/xlink" x="0px" y="0px"
	 viewBox="0 0 838 588" style="enable-background:new 0 0 838 588;" xml:space="preserve">
<g>
	<path d="M643.3,166.4c-29.2,0-56.2-9.7-77.8-26c-24.8-18.7-42.7-46.2-49-77.8c-1.6-7.8-2.4-15.9-2.5-24.2h-83.5v228.1l-0.1,124.9
		c0,33.4-21.8,61.7-51.9,71.7c-8.8,2.9-18.2,4.3-28,3.7c-12.6-0.7-24.3-4.5-34.6-10.6c-21.8-13-36.5-36.6-36.9-63.7
		c-0.6-42.2,33.5-76.7,75.7-76.7c8.3,0,16.3,1.4,23.8,3.8v-62.3V235c-7.9-1.2-15.9-1.8-24.1-1.8c-46.2,0-89.4,19.2-120.3,53.8
		c-23.3,26.1-37.3,59.5-39.5,94.5c-2.8,45.9,14,89.6,46.6,121.8c4.8,4.7,9.8,9.1,15.1,13.2c27.9,21.5,62.1,33.2,98.1,33.2
		c8.1,0,16.2-0.6,24.1-1.8c33.6-5,64.6-20.4,89.1-44.6c30.1-29.7,46.7-69.2,46.9-111.2l-0.4-186.6c14.3,11.1,30,20.2,46.9,27.3
		c26.2,11.1,54,16.6,82.5,16.6v-60.6v-22.5C643.6,166.4,643.3,166.4,643.3,166.4L643.3,166.4z"/>
</g>
</svg>
