<svg width="6474" height="1580" viewBox="0 0 6474 1580" fill="none" xmlns="http://www.w3.org/2000/svg">
<path d="M726.386 1120.41V465.914H999.406C1069.84 465.914 1125.01 480.251 1164.9 508.924C1204.79 537.598 1224.74 579.049 1224.74 633.279C1224.74 668.809 1216.33 698.729 1199.5 723.039C1182.67 747.349 1159.29 765.738 1129.37 778.204C1100.07 790.048 1067.04 795.969 1030.26 795.969L1047.09 777.269C1091.97 777.269 1130.31 783.814 1162.1 796.904C1193.89 809.994 1217.88 829.006 1234.09 853.939C1250.92 878.873 1259.34 910.039 1259.34 947.439C1259.34 1002.29 1239.39 1044.99 1199.5 1075.53C1159.6 1105.45 1099.14 1120.41 1018.11 1120.41H726.386ZM774.071 1079.27H1018.11C1081.06 1079.27 1129.06 1068.68 1162.1 1047.48C1195.13 1025.67 1211.65 991.073 1211.65 943.699C1211.65 896.949 1195.13 862.978 1162.1 841.784C1129.06 819.968 1081.06 809.059 1018.11 809.059H768.461V767.919H997.536C1054.26 767.919 1098.2 757.011 1129.37 735.194C1160.54 713.378 1176.12 680.653 1176.12 637.019C1176.12 594.009 1160.54 561.596 1129.37 539.779C1098.2 517.963 1054.26 507.054 997.536 507.054H774.071V1079.27ZM1339.7 1120.41V426.644H1386.45V1120.41H1339.7ZM1706.92 1124.15C1665.15 1124.15 1629 1116.67 1598.46 1101.71C1567.91 1086.13 1544.23 1063.07 1527.4 1032.52C1511.19 1001.36 1503.09 963.023 1503.09 917.519V632.344H1549.84V913.779C1549.84 968.633 1563.86 1010.4 1591.91 1039.07C1619.96 1067.74 1659.54 1082.08 1710.66 1082.08C1747.43 1082.08 1779.22 1074.29 1806.03 1058.7C1832.83 1043.12 1853.4 1021.3 1867.74 993.254C1882.07 964.581 1889.24 930.921 1889.24 892.274V632.344H1935.99V1120.41H1891.11V984.839L1897.66 1000.73C1883.32 1038.76 1859.32 1068.99 1825.66 1091.43C1792.62 1113.25 1753.04 1124.15 1706.92 1124.15ZM2257.58 1124.15C2208.34 1124.15 2164.7 1113.56 2126.68 1092.36C2089.28 1071.17 2059.67 1041.87 2037.86 1004.47C2016.66 967.074 2006.07 924.376 2006.07 876.379C2006.07 827.759 2016.04 785.061 2035.99 748.284C2056.56 710.884 2084.61 681.588 2120.14 660.394C2155.67 639.201 2195.56 628.604 2239.82 628.604C2284.07 628.604 2323.65 638.889 2358.56 659.459C2394.09 680.029 2421.83 709.014 2441.78 746.414C2462.35 783.191 2472.63 825.889 2472.63 874.509C2472.63 876.379 2472.32 878.561 2471.7 881.054C2471.7 882.924 2471.7 885.106 2471.7 887.599H2040.66V851.134H2446.45L2427.75 868.899C2428.37 830.876 2420.27 796.904 2403.44 766.984C2387.23 736.441 2365.11 712.754 2337.06 695.924C2309.01 678.471 2276.59 669.744 2239.82 669.744C2203.66 669.744 2171.25 678.471 2142.58 695.924C2114.53 712.754 2092.4 736.441 2076.19 766.984C2059.98 796.904 2051.88 831.188 2051.88 869.834V878.249C2051.88 918.143 2060.61 953.673 2078.06 984.839C2096.14 1015.38 2120.76 1039.38 2151.93 1056.83C2183.09 1073.66 2218.62 1082.08 2258.52 1082.08C2289.68 1082.08 2318.67 1076.47 2345.47 1065.25C2372.9 1054.03 2395.96 1036.89 2414.66 1013.82L2441.78 1044.68C2420.58 1070.86 2393.78 1090.81 2361.37 1104.52C2329.58 1117.61 2294.98 1124.15 2257.58 1124.15ZM2722.76 1120.41V465.914H2770.44V1120.41H2722.76ZM3111.64 1305.54C3067.39 1305.54 3025.31 1298.69 2985.42 1284.97C2945.53 1271.26 2913.11 1252.25 2888.18 1227.94L2913.42 1192.41C2937.73 1214.85 2966.72 1232.3 3000.38 1244.77C3034.66 1257.24 3071.44 1263.47 3110.71 1263.47C3176.16 1263.47 3224.16 1248.2 3254.7 1217.65C3285.87 1187.11 3301.45 1139.11 3301.45 1073.66V938.089L3310.8 865.159L3303.32 792.229V632.344H3348.2V1068.05C3348.2 1149.71 3328.25 1209.55 3288.36 1247.57C3249.09 1286.22 3190.18 1305.54 3111.64 1305.54ZM3098.55 1102.65C3052.43 1102.65 3010.98 1092.68 2974.2 1072.73C2938.05 1052.16 2909.06 1024.11 2887.24 988.579C2866.05 952.426 2855.45 911.286 2855.45 865.159C2855.45 818.409 2866.05 777.269 2887.24 741.739C2909.06 706.209 2938.05 678.471 2974.2 658.524C3010.98 638.578 3052.43 628.604 3098.55 628.604C3142.81 628.604 3182.39 638.266 3217.3 657.589C3252.83 676.289 3280.88 703.404 3301.45 738.934C3322.02 773.841 3332.3 815.916 3332.3 865.159C3332.3 913.779 3322.02 955.854 3301.45 991.384C3280.88 1026.91 3252.83 1054.34 3217.3 1073.66C3182.39 1092.99 3142.81 1102.65 3098.55 1102.65ZM3102.29 1060.57C3141.56 1060.57 3176.16 1052.47 3206.08 1036.26C3236 1019.43 3259.37 996.371 3276.2 967.074C3293.66 937.154 3302.38 903.183 3302.38 865.159C3302.38 826.513 3293.66 792.541 3276.2 763.244C3259.37 733.948 3236 711.196 3206.08 694.989C3176.16 678.783 3141.56 670.679 3102.29 670.679C3064.27 670.679 3029.99 678.783 2999.44 694.989C2969.52 711.196 2945.84 733.948 2928.38 763.244C2911.55 792.541 2903.14 826.513 2903.14 865.159C2903.14 903.183 2911.55 937.154 2928.38 967.074C2945.84 996.371 2969.52 1019.43 2999.44 1036.26C3029.99 1052.47 3064.27 1060.57 3102.29 1060.57ZM3709.71 628.604C3749.6 628.604 3784.2 636.396 3813.49 651.979C3843.41 666.939 3866.48 690.003 3882.68 721.169C3899.51 751.713 3907.93 789.736 3907.93 835.239V1120.41H3861.18V838.979C3861.18 784.126 3847.15 742.363 3819.1 713.689C3791.68 685.016 3753.03 670.679 3703.16 670.679C3665.14 670.679 3632.1 678.471 3604.05 694.054C3576 709.638 3554.5 731.454 3539.54 759.504C3525.2 787.554 3518.03 821.214 3518.03 860.484V1120.41H3471.28V632.344H3516.16V767.919L3509.62 752.959C3524.58 714.313 3549.2 684.081 3583.48 662.264C3617.77 639.824 3659.84 628.604 3709.71 628.604ZM4025.6 1120.41V632.344H4072.35V1120.41H4025.6ZM4048.97 513.599C4038.38 513.599 4029.34 509.859 4021.86 502.379C4014.38 494.899 4010.64 486.173 4010.64 476.199C4010.64 465.603 4014.38 456.564 4021.86 449.084C4029.34 441.604 4038.38 437.864 4048.97 437.864C4060.19 437.864 4069.23 441.604 4076.09 449.084C4083.57 455.941 4087.31 464.668 4087.31 475.264C4087.31 485.861 4083.57 494.899 4076.09 502.379C4069.23 509.859 4060.19 513.599 4048.97 513.599ZM4336.71 1124.15C4293.7 1124.15 4260.67 1112.31 4237.6 1088.62C4215.16 1064.94 4203.94 1032.52 4203.94 991.384V525.754H4250.69V986.709C4250.69 1017.88 4258.49 1041.87 4274.07 1058.7C4289.65 1075.53 4312.09 1083.95 4341.39 1083.95C4371.93 1083.95 4397.18 1074.91 4417.12 1056.83L4436.76 1089.56C4424.29 1101.4 4409.02 1110.13 4390.94 1115.74C4373.49 1121.35 4355.41 1124.15 4336.71 1124.15ZM4114.18 672.549V632.344H4405.9V672.549H4114.18ZM4492.33 1120.41V632.344H4539.08V1120.41H4492.33ZM4515.71 513.599C4505.11 513.599 4496.07 509.859 4488.59 502.379C4481.11 494.899 4477.37 486.173 4477.37 476.199C4477.37 465.603 4481.11 456.564 4488.59 449.084C4496.07 441.604 4505.11 437.864 4515.71 437.864C4526.93 437.864 4535.97 441.604 4542.82 449.084C4550.3 455.941 4554.04 464.668 4554.04 475.264C4554.04 485.861 4550.3 494.899 4542.82 502.379C4535.97 509.859 4526.93 513.599 4515.71 513.599ZM5017.41 1124.15C4970.66 1124.15 4928.89 1113.56 4892.12 1092.36C4855.96 1071.17 4826.98 1041.87 4805.16 1004.47C4783.97 967.074 4773.37 924.376 4773.37 876.379C4773.37 827.759 4783.97 785.061 4805.16 748.284C4826.98 710.884 4855.96 681.588 4892.12 660.394C4928.89 639.201 4970.66 628.604 5017.41 628.604C5064.16 628.604 5105.92 639.201 5142.7 660.394C5179.47 681.588 5208.46 710.884 5229.65 748.284C5250.85 785.061 5261.44 827.759 5261.44 876.379C5261.44 924.376 5250.85 967.074 5229.65 1004.47C5208.46 1041.87 5179.47 1071.17 5142.7 1092.36C5105.92 1113.56 5064.16 1124.15 5017.41 1124.15ZM5017.41 1082.08C5054.81 1082.08 5088.47 1073.66 5118.39 1056.83C5148.31 1039.38 5171.68 1015.07 5188.51 983.904C5205.34 952.738 5213.76 916.896 5213.76 876.379C5213.76 835.239 5205.34 799.398 5188.51 768.854C5171.68 737.688 5148.31 713.689 5118.39 696.859C5088.47 679.406 5054.81 670.679 5017.41 670.679C4980.01 670.679 4946.35 679.406 4916.43 696.859C4887.13 713.689 4863.76 737.688 4846.3 768.854C4829.47 799.398 4821.06 835.239 4821.06 876.379C4821.06 916.896 4829.47 952.738 4846.3 983.904C4863.76 1015.07 4887.13 1039.38 4916.43 1056.83C4946.35 1073.66 4980.01 1082.08 5017.41 1082.08ZM5570.1 628.604C5610 628.604 5644.59 636.396 5673.89 651.979C5703.81 666.939 5726.87 690.003 5743.08 721.169C5759.91 751.713 5768.32 789.736 5768.32 835.239V1120.41H5721.57V838.979C5721.57 784.126 5707.55 742.363 5679.5 713.689C5652.07 685.016 5613.42 670.679 5563.56 670.679C5525.53 670.679 5492.5 678.471 5464.45 694.054C5436.4 709.638 5414.89 731.454 5399.93 759.504C5385.6 787.554 5378.43 821.214 5378.43 860.484V1120.41H5331.68V632.344H5376.56V767.919L5370.01 752.959C5384.97 714.313 5409.59 684.081 5443.88 662.264C5478.16 639.824 5520.24 628.604 5570.1 628.604Z" fill="white"/>
<rect x="4702" y="488.538" width="1204.61" height="709.759" rx="53" stroke="white" stroke-width="56" stroke-linejoin="round"/>
<path d="M5022.17 684.144L5022.17 590.05" stroke="white" stroke-width="68" stroke-linecap="round"/>
</svg>
