<svg width="82" height="32" viewBox="0 0 82 32" fill="none" xmlns="http://www.w3.org/2000/svg">
<path fill-rule="evenodd" clip-rule="evenodd" d="M76.2982 8.0747L81.8056 0H0L5.50736 8.0747C6.11129 11.5039 7.68967 20.3425 7.86882 21.1966L7.89162 21.3055C8.39555 23.7131 8.70461 25.1897 13.3083 26.327C19.5295 27.8591 33.7526 30.8386 40.898 32C48.0462 30.8372 62.276 27.8591 68.4972 26.327C73.101 25.1897 73.41 23.7131 73.9139 21.3055L73.9367 21.1966C74.1159 20.3369 75.6943 11.5039 76.2982 8.0747ZM9.49881 7.1868H16.6714L15.3142 4.73578H39.6468V7.17694H40.4611V3.88871H7.27714L9.49881 7.1868ZM10.1868 10.4157H40.4515V7.96611H9.79459L10.1868 10.4157ZM17.8738 14.5201H10.8519L10.309 11.1783H40.4597V14.5201H39.6454V11.962H17.6187L17.8738 14.5201ZM40.4559 18.6342H29.1168L29.1209 16.8794H40.4559V18.6342ZM41.3529 3.88871H52.7924L52.7978 8.81189H41.3529V3.88871ZM12.4841 22.8724C12.67 23.1655 13.0147 23.5066 14.1588 23.8294C14.6524 23.955 15.1955 24.0806 15.9113 24.2462L16.181 24.3086H28.3235V22.5707H12.3267C12.3691 22.6761 12.4209 22.777 12.4814 22.8724H12.4841ZM28.3237 20.217H11.7908L10.9778 15.3079H28.3237V20.217ZM29.1168 27.1035C33.3512 27.9689 37.4905 28.7681 40.4627 29.2515V21.0133H29.1168V27.1035ZM70.9588 14.52H53.5763V9.59542H71.7527L70.9588 14.52ZM53.5763 5.45463V7.20234L72.2725 7.19529L73.4451 5.45463H53.5763ZM77.4629 1.518H4.34855L8.69146 7.95774C9.06577 10.2668 9.39087 12.2915 9.66762 14.015L9.66782 14.0163L9.66788 14.0167C10.1937 17.2917 10.5449 19.4789 10.7272 20.4623C10.7495 20.583 10.771 20.7005 10.7919 20.815L10.7921 20.8158L10.7923 20.8169L10.7924 20.8174C11.2238 23.178 11.4167 24.234 13.8935 24.9274C19.0588 26.1959 34.0283 29.3926 40.9077 30.4708C47.7872 29.3926 62.758 26.2002 67.9261 24.9274C70.4028 24.234 70.5958 23.178 71.0272 20.8174L71.0702 20.5826L71.0923 20.4623C71.2739 19.4585 71.6375 17.2002 72.1832 13.811C72.4535 12.1324 72.7684 10.1763 73.1281 7.95774L77.4629 1.518ZM42.1672 18.6342H41.3529V15.3079H70.8358L70.293 18.6412H63.4624C63.5669 18.0577 63.7691 16.396 63.7976 16.155H42.1672V18.6342ZM41.3529 21.845H69.7175L70.1762 19.4053H41.3529V21.845ZM41.3529 11.1797H52.7978V12.9372H41.3529V11.1797ZM41.3529 22.5707H69.4895C69.4499 22.6769 69.3989 22.7781 69.3375 22.8724C69.1516 23.1655 68.8109 23.5263 67.6601 23.8237C62.5653 25.1402 48.5635 28.0239 41.3529 29.2487V22.5707ZM44.1345 27.8986C43.3567 28.0416 42.6385 28.1736 42.1674 28.2622V23.4151H62.2113C61.2924 24.5381 59.4425 24.9049 49.1779 26.9405C48.7238 27.0305 48.2533 27.1238 47.7656 27.2206C47.0457 27.3633 45.4985 27.6478 44.1345 27.8986Z" fill="black"/>
</svg>
