<svg width="823" height="286" viewBox="0 0 823 286" fill="none" xmlns="http://www.w3.org/2000/svg">
<path d="M7.38438 262V177.88H85.8644C98.1044 177.88 106.744 179.56 111.784 183.16C116.944 186.76 119.464 191.44 119.464 197.08V198.64C119.464 201.16 118.864 203.56 117.904 205.6C116.824 207.64 115.504 209.32 113.704 210.52C112.024 211.84 110.464 212.8 109.024 213.4C107.704 214.12 106.264 214.72 104.824 215.08C106.864 215.44 108.784 216.16 110.704 217C112.624 217.84 114.664 219.04 116.944 220.48C119.224 222.04 121.144 224.2 122.464 226.96C123.904 229.6 124.624 232.72 124.624 236.2V237.76C124.624 253.96 111.904 262 86.5844 262H7.38438ZM36.0644 195.64V209.32H80.9444C87.6644 209.32 90.9044 207.04 90.9044 202.48V202.24C90.9044 197.8 87.6644 195.64 80.9444 195.64H36.0644ZM83.4644 227.2H36.0644V243.64H83.4644C87.6644 243.64 90.6644 242.8 92.3444 241.12C93.9044 239.56 94.7444 237.64 94.7444 235.36V235C94.7444 229.72 91.0244 227.2 83.4644 227.2ZM224.31 177.52H252.87V217.96C252.87 221.44 252.39 225.04 251.55 228.64C250.71 232.12 249.03 236.08 246.51 240.16C243.99 244.36 240.75 247.96 236.79 251.08C232.83 254.2 227.43 256.84 220.59 258.88C213.63 261.04 205.71 262 196.83 262H192.39C185.67 262 179.43 261.52 173.91 260.44C168.27 259.36 163.59 257.92 159.75 256.12C155.91 254.32 152.43 252.16 149.55 249.64C146.55 247.12 144.27 244.48 142.59 241.96C140.79 239.32 139.47 236.56 138.27 233.56C137.19 230.56 136.47 227.8 136.11 225.4C135.75 222.88 135.63 220.48 135.63 217.96V177.52H164.19V216.4C164.19 219.4 164.67 222.16 165.51 224.68C166.35 227.32 167.79 229.84 169.83 232.36C171.87 234.88 174.99 236.8 179.31 238.24C183.51 239.68 188.55 240.52 194.43 240.52C200.19 240.52 205.11 239.68 209.31 238.24C213.39 236.8 216.51 234.88 218.55 232.36C220.71 229.84 222.15 227.32 222.99 224.68C223.83 222.16 224.31 219.4 224.31 216.4V177.52ZM366.111 227.08C368.991 230.2 370.431 234.28 370.431 239.32V262H344.391V247.24C344.391 242.2 343.071 238.48 340.431 236.2C337.791 233.92 333.351 232.72 326.991 232.72H293.151V262H267.231V179.44H334.071C358.071 179.44 370.071 186.64 370.071 200.92V202.24C370.071 211 364.911 217 354.711 220.36C359.391 221.68 363.231 223.84 366.111 227.08ZM342.951 206.32V206.2C342.951 203.8 342.111 201.88 340.431 200.44C338.751 199 336.111 198.16 332.511 198.16H293.151V214.48H332.511C336.111 214.48 338.751 213.64 340.431 212.2C342.111 210.76 342.951 208.72 342.951 206.32ZM383.247 178.12H415.167L473.607 230.92V178.12H501.927V262.12H473.607L411.447 206.44V262.12H383.247V178.12ZM544.929 178.24V262H516.369V178.24H544.929ZM559.38 178.12H591.3L649.74 230.92V178.12H678.06V262.12H649.74L587.58 206.44V262.12H559.38V178.12ZM752.262 263.44H749.742C740.262 263.44 731.862 262.48 724.422 260.68C717.102 258.76 711.222 256.36 706.782 253.48C702.462 250.6 698.862 247.24 696.102 243.4C693.342 239.44 691.422 235.72 690.342 232.24C689.382 228.64 688.902 225.04 688.902 221.32V218.2C688.902 214.48 689.262 211 690.102 207.52C690.942 204.16 692.742 200.44 695.502 196.6C698.262 192.76 701.862 189.4 706.182 186.64C710.502 183.76 716.502 181.48 724.182 179.56C731.742 177.64 740.622 176.8 750.702 176.8H755.982C765.702 176.8 774.342 177.52 781.782 178.96C789.222 180.52 795.102 182.32 799.302 184.6C803.502 186.76 806.982 189.4 809.622 192.4C812.382 195.52 814.182 198.28 815.022 200.8C815.982 203.32 816.462 205.84 816.462 208.48V208.6H786.102C782.982 200.68 772.182 196.72 753.582 196.72C730.422 196.72 718.782 204.28 718.782 219.28V220.6C718.782 226.72 721.662 232 727.302 236.44C733.062 240.88 741.702 243.04 753.342 243.04C758.382 243.04 763.062 242.68 767.262 242.08C771.582 241.36 774.942 240.52 777.462 239.56C779.982 238.6 782.142 237.52 783.942 236.32C785.622 235.24 786.942 234.16 787.662 233.32C788.262 232.36 788.622 231.64 788.622 231.16V230.92H752.742V215.08H817.182V262H796.542C796.542 262 796.422 254.44 796.302 248.92C787.062 258.64 772.422 263.44 752.262 263.44Z" fill="white"/>
<path d="M5.4 160.09V97.09H35.91L59.58 136.33L83.43 97.09H112.86V160.09H91.62V116.44L64.62 160.09H53.1L26.01 116.44V160.09H5.4ZM184.899 96.64H206.319V126.97C206.319 129.58 205.959 132.28 205.329 134.98C204.699 137.59 203.439 140.56 201.549 143.62C199.659 146.77 197.229 149.47 194.259 151.81C191.289 154.15 187.239 156.13 182.109 157.66C176.889 159.28 170.949 160 164.289 160H160.959C155.919 160 151.239 159.64 147.099 158.83C142.869 158.02 139.359 156.94 136.479 155.59C133.599 154.24 130.989 152.62 128.829 150.73C126.579 148.84 124.869 146.86 123.609 144.97C122.259 142.99 121.269 140.92 120.369 138.67C119.559 136.42 119.019 134.35 118.749 132.55C118.479 130.66 118.389 128.86 118.389 126.97V96.64H139.809V125.8C139.809 128.05 140.169 130.12 140.799 132.01C141.429 133.99 142.509 135.88 144.039 137.77C145.569 139.66 147.909 141.1 151.149 142.18C154.299 143.26 158.079 143.89 162.489 143.89C166.809 143.89 170.499 143.26 173.649 142.18C176.709 141.1 179.049 139.66 180.579 137.77C182.199 135.88 183.279 133.99 183.909 132.01C184.539 130.12 184.899 128.05 184.899 125.8V96.64ZM249.49 161.17C242.65 161.17 236.62 160.63 231.58 159.55C226.45 158.47 222.49 157.21 219.7 155.68C217 154.15 214.75 152.26 213.13 150.1C211.51 147.94 210.43 145.96 209.98 144.25C209.53 142.54 209.35 140.65 209.35 138.67V137.77H231.76C232.21 144.43 237.07 147.76 250.21 147.76H255.16C259.48 147.76 261.28 147.49 264.16 147.13C266.95 146.77 269.02 146.32 270.28 145.6C271.63 144.88 272.44 144.25 272.89 143.53C273.34 142.81 273.52 142 273.52 141.01C273.52 139.66 273.16 138.58 272.44 137.77C271.72 137.05 269.92 136.33 267.22 135.7C264.52 135.16 260.65 134.8 255.52 134.71L248.77 134.53L243.73 134.44C221.41 133.9 210.25 127.69 210.25 115.99V115.18C210.25 113.2 210.52 111.31 211.06 109.6C211.6 107.89 212.68 106.18 214.39 104.38C216.01 102.67 218.17 101.23 220.87 100.06C223.57 98.89 227.17 97.9 231.76 97.18C236.26 96.37 241.57 96.01 247.6 96.01H253.99C260.2 96.01 265.78 96.37 270.55 97.18C275.41 97.99 279.19 98.98 282.07 100.24C284.95 101.5 287.29 103.03 289.09 104.83C290.89 106.63 292.15 108.43 292.78 110.14C293.5 111.94 293.86 113.83 293.86 115.9V116.71H271.54C271.36 116.08 271.18 115.45 271 115C270.82 114.55 270.28 113.92 269.47 113.11C268.66 112.3 267.67 111.67 266.32 111.13C265.06 110.68 263.08 110.23 260.56 109.78C258.04 109.42 256.06 109.24 252.64 109.24H249.49C244.27 109.24 241.03 109.51 238.24 110.05C235.54 110.68 233.83 111.31 233.29 111.94C232.66 112.57 232.39 113.47 232.39 114.64C232.39 115.72 232.66 116.53 233.38 117.25C234.01 117.88 235.54 118.51 237.97 119.14C240.4 119.68 243.82 119.95 248.23 120.04L253.27 120.13L259.75 120.22C272.62 120.4 281.8 122.02 287.47 124.99C293.23 127.96 296.02 132.55 296.02 138.94V140.11C296.02 142.45 295.75 144.52 295.21 146.32C294.67 148.12 293.5 150.01 291.79 151.99C290.08 153.88 287.83 155.5 284.95 156.76C282.07 158.11 278.2 159.1 273.25 159.91C268.3 160.81 262.45 161.17 255.79 161.17H249.49ZM324.122 160.09V112.03H294.602V97.09H375.422V112.03H345.812V160.09H324.122ZM471.819 160L445.359 136.51H438.789V160H419.259V97.81H438.789V117.7H446.169L470.829 97.81H495.669L459.759 126.25L497.379 160H471.819ZM519.129 145.24H733.329V160H497.619V96.37H732.339V110.86H519.129V120.22H731.169V134.8H519.129V145.24ZM789.002 139.12H758.942V160.09H737.522V97.09H789.002C810.332 97.09 820.952 103.93 820.952 117.61V118.42C820.952 132.19 810.332 139.12 789.002 139.12ZM758.942 111.4V124.99H788.642C795.212 124.99 798.542 122.74 798.542 118.33V118.06C798.542 113.65 795.212 111.4 788.642 111.4H758.942Z" fill="white"/>
<path d="M30.42 73.09V25.03H0.9V10.09H81.72V25.03H52.11V73.09H30.42ZM94.3151 73V10.18H115.735V33.04H161.725V10.18H183.235V73H161.725V48.25H115.735V73H94.3151ZM200.373 9.91H272.823V24.22H221.613V33.58H271.653V47.98H221.613V58.33H273.813V73H200.373V9.91ZM344.104 10.18H414.844V24.4H365.434V33.76H413.674V48.07H365.434V73H344.104V10.18ZM429.332 10.09H450.752V57.43H498.542V73.09H429.332V10.09ZM571.153 10.72L604.633 72.91H583.483L577.633 61.57H532.723L526.873 72.91H505.813L539.203 10.72H571.153ZM540.013 47.53H570.433L558.553 24.67H551.803L540.013 47.53ZM616.219 73.09V10.09H646.729L670.399 49.33L694.249 10.09H723.679V73.09H702.439V29.44L675.439 73.09H663.919L636.829 29.44V73.09H616.219ZM740.907 9.91H813.357V24.22H762.147V33.58H812.187V47.98H762.147V58.33H814.347V73H740.907V9.91Z" fill="white"/>
</svg>
